nColumns=19
nRows=77
DataType=double
version=3
OpenSimVersion=4.1
endheader
time	ground_force_1_vx	ground_force_1_vy	ground_force_1_vz	ground_force_1_px	ground_force_1_py	ground_force_1_pz	ground_force_1_mx	ground_force_1_my	ground_force_1_mz	ground_force_2_vx	ground_force_2_vy	ground_force_2_vz	ground_force_2_px	ground_force_2_py	ground_force_2_pz	ground_force_2_mx	ground_force_2_my	ground_force_2_mz
1.95833	0	0	0	-0.000890635	0	8.11853e-05	0	0	0	0	0	0	-0.000890538	0	8.11073e-05	0	0	0
1.96667	0	0	0	-0.000890637	0	8.11827e-05	0	0	0	-6.28587	18.3219	-2.36585	0.942145	0	-0.23636	-0	0.379276	-0
1.975	0	0	0	-0.000890639	0	8.11801e-05	0	0	0	-11.2103	43.59	-3.65206	0.946397	0	-0.260898	-0	0.202431	-0
1.98333	0	0	0	-0.000890641	0	8.11775e-05	0	0	0	-11.5653	97.5376	-4.87745	0.936311	0	-0.27075	0	-0.352395	0
1.99167	0	0	0	-0.000890643	0	8.11749e-05	0	0	0	-4.28062	198.062	-6.27566	0.923059	0	-0.274957	0	-1.35526	0
2	0	0	0	-0.000890645	0	8.11723e-05	0	0	0	4.42517	355.82	-8.19157	0.912673	0	-0.275963	0	-2.77831	0
2.00833	0	0	0	-0.000890647	0	8.11698e-05	0	0	0	4.11882	553.487	-10.7241	0.907554	0	-0.275126	0	-4.02522	0
2.01667	0	0	0	-0.000890649	0	8.11672e-05	0	0	0	-10.6266	743.659	-14.0986	0.905924	0	-0.273618	0	-3.70445	0
2.025	0	0	0	-0.000890651	0	8.11646e-05	0	0	0	-37.1455	885.45	-18.7604	0.904667	0	-0.272489	0	-0.66389	0
2.03333	0	0	0	-0.000890653	0	8.11621e-05	0	0	0	-64.6474	981.699	-23.9039	0.901193	0	-0.272473	-0	4.1202	-0
2.04167	0	0	0	-0.000890655	0	8.11596e-05	0	0	0	-83.0254	1066.22	-26.2842	0.894549	0	-0.273315	-0	7.29112	-0
2.05	0	0	0	-0.000890657	0	8.11571e-05	0	0	0	-90.7666	1161.95	-22.4272	0.885993	0	-0.274018	-0	5.96913	-0
2.05833	0	0	0	-0.000890659	0	8.11546e-05	0	0	0	-89.803	1265.05	-12.6232	0.876613	0	-0.27442	-0	1.00192	-0
2.06667	0	0	0	-0.000890661	0	8.11521e-05	0	0	0	-82.343	1358.69	-1.08375	0.866538	0	-0.275323	0	-3.66645	0
2.075	0	0	0	-0.000890662	0	8.11496e-05	0	0	0	-70.5982	1432.68	8.71062	0.85595	0	-0.277041	0	-5.2513	0
2.08333	0	0	0	-0.000890664	0	8.11471e-05	0	0	0	-57.2546	1488.6	17.2776	0.845222	0	-0.278997	0	-4.78704	0
2.09167	0	0	0	-0.000890666	0	8.11447e-05	0	0	0	-43.8947	1529.43	26.7281	0.834663	0	-0.28057	0	-4.97502	0
2.1	0	0	0	-0.000890668	0	8.11422e-05	0	0	0	-29.9484	1553.04	36.6698	0.824216	0	-0.281811	0	-6.46591	0
2.10833	0	0	0	-0.00089067	0	8.11398e-05	0	0	0	-15.5905	1555.29	44.3926	0.813836	0	-0.283243	0	-7.5369	0
2.11667	0	0	0	-0.000890672	0	8.11374e-05	0	0	0	-1.93618	1535.52	48.4948	0.803577	0	-0.285016	0	-6.96234	0
2.125	0	0	0	-0.000890674	0	8.1135e-05	0	0	0	10.4424	1497.05	50.2424	0.793572	0	-0.286714	0	-5.6379	0
2.13333	0	0	0	-0.000890675	0	8.11326e-05	0	0	0	21.4821	1443.22	51.0424	0.784066	0	-0.287959	0	-4.96991	0
2.14167	0	0	0	-0.000890677	0	8.11303e-05	0	0	0	31.7679	1374.79	50.2389	0.774982	0	-0.288826	0	-4.83491	0
2.15	0	0	0	-0.000890679	0	8.11279e-05	0	0	0	41.9104	1292.82	46.2826	0.766038	0	-0.289576	0	-4.04083	0
2.15833	0	0	0	-0.000890681	0	8.11256e-05	0	0	0	53.0981	1201.92	39.1274	0.756937	0	-0.290147	0	-2.26954	0
2.16667	0	0	0	-0.000890683	0	8.11233e-05	0	0	0	66.2994	1107.52	30.411	0.747347	0	-0.290172	0	-0.565142	0
2.175	0	0	0	-0.000890684	0	8.1121e-05	0	0	0	81.0218	1012.71	21.5553	0.73714	0	-0.289449	-0	0.146491	-0
2.18333	0	0	0	-0.000890686	0	8.11187e-05	0	0	0	94.6623	917.602	12.66	0.726399	0	-0.288178	-0	0.239936	-0
2.19167	0	0	0	-0.000890688	0	8.11164e-05	0	0	0	104.497	821.074	3.50064	0.715155	0	-0.286748	-0	0.694699	-0
2.2	0	0	0	-0.00089069	0	8.11142e-05	0	0	0	110.205	724.53	-5.10327	0.703435	0	-0.285267	-0	1.66712	-0
2.20833	0	0	0	-0.000890691	0	8.11119e-05	0	0	0	112.104	631.414	-11.5451	0.691662	0	-0.283567	-0	2.30978	-0
2.21667	0	0	0	-0.000890693	0	8.11097e-05	0	0	0	109.967	543.364	-14.8813	0.680285	0	-0.281577	-0	1.93109	-0
2.225	0	0	0	-0.000890695	0	8.11075e-05	0	0	0	103.044	459.969	-15.536	0.669724	0	-0.279563	-0	0.839317	-0
2.23333	0	0	0	-0.000890696	0	8.11054e-05	0	0	0	91.6086	381.077	-14.5076	0.660301	0	-0.277976	0	-0.15879	0
2.24167	0	0	0	-0.000890698	0	8.11032e-05	0	0	0	78.0127	307.86	-12.3018	0.651518	0	-0.276892	0	-0.77781	0
2.25	0	0	0	-0.0008907	0	8.11011e-05	0	0	0	64.6457	242.148	-8.92671	0.642831	0	-0.275774	0	-1.42062	0
2.25833	0	0	0	-0.000890701	0	8.1099e-05	0	0	0	52.8486	185.427	-4.69812	0.634661	0	-0.273825	0	-2.40727	0
2.26667	0	0	0	-0.000890703	0	8.10969e-05	0	0	0	42.6202	137.985	-0.58921	0.628684	0	-0.270807	0	-3.40522	0
2.275	0	0	0	-0.000890704	0	8.10948e-05	0	0	0	33.6225	99.4875	2.39845	0.626097	0	-0.266681	0	-3.80134	0
2.28333	0	0	0	-0.000890706	0	8.10928e-05	0	0	0	25.7512	70.0366	3.98566	0.627352	0	-0.259899	0	-3.45345	0
2.29167	0	0	0	-0.000890708	0	8.10907e-05	0	0	0	18.5073	49.2344	4.5682	0.638393	0	-0.247789	0	-2.85686	0
2.3	0	0	0	-0.000890709	0	8.10887e-05	0	0	0	11.9763	35.3015	4.62475	0.664881	0	-0.229441	0	-2.60703	0
2.30833	0	0	0	-0.000890711	0	8.10868e-05	0	0	0	6.26238	25.5697	4.36258	0.699832	0	-0.20734	0	-2.82511	0
2.31667	0	0	0	-0.000890712	0	8.10848e-05	0	0	0	1.78348	17.9813	3.81548	0.727946	0	-0.183863	0	-3.09266	0
2.325	0	0	0	-0.000890714	0	8.10829e-05	0	0	0	-0.617967	11.992	3.04584	-0.000890578	0	8.09739e-05	0	0	0
2.33333	0	0	0	-0.000890715	0	8.10809e-05	0	0	0	0	0	0	-0.000890579	0	8.09714e-05	0	0	0
2.34167	0	0	0	-0.000890716	0	8.10791e-05	0	0	0	0	0	0	-0.000890579	0	8.09689e-05	0	0	0
2.35	0	0	0	-0.000890718	0	8.10772e-05	0	0	0	0	0	0	-0.00089058	0	8.09665e-05	0	0	0
2.35833	-6.1189	17.6845	-0.233903	0.926688	0	-0.170002	0	-3.41097	0	0	0	0	-0.000890581	0	8.09641e-05	0	0	0
2.36667	-10.9549	43.6826	-2.08482	0.950295	0	-0.194878	0	-3.68026	0	0	0	0	-0.000890582	0	8.09617e-05	0	0	0
2.375	-12.6494	100.953	-5.29912	0.957026	0	-0.212358	0	-1.42474	0	0	0	0	-0.000890582	0	8.09594e-05	0	0	0
2.38333	-6.42692	210.013	-9.2127	0.952971	0	-0.223774	-0	3.02524	-0	0	0	0	-0.000890583	0	8.09571e-05	0	0	0
2.39167	4.36289	383.023	-11.4048	0.945256	0	-0.231255	-0	6.63994	-0	0	0	0	-0.000890584	0	8.09548e-05	0	0	0
2.4	7.92137	599.191	-8.9431	0.93918	0	-0.235815	-0	5.87566	-0	0	0	0	-0.000890584	0	8.09526e-05	0	0	0
2.40833	-5.70647	801.864	-1.45708	0.936225	0	-0.238251	-0	0.33993	-0	0	0	0	-0.000890585	0	8.09504e-05	0	0	0
2.41667	-36.9636	945.4	7.143	0.935266	0	-0.239595	0	-6.05706	0	0	0	0	-0.000890586	0	8.09482e-05	0	0	0
2.425	-76.7731	1037.57	11.4826	0.934066	0	-0.2407	0	-8.55088	0	0	0	0	-0.000890586	0	8.09461e-05	0	0	0
2.43333	-112.075	1116.87	9.84881	0.930754	0	-0.241801	0	-6.23733	0	0	0	0	-0.000890587	0	8.0944e-05	0	0	0
2.44167	-132.13	1207.27	5.38538	0.924728	0	-0.242415	0	-2.5321	0	0	0	0	-0.000890587	0	8.09419e-05	0	0	0
2.45	-136.072	1307.38	1.54982	0.916512	0	-0.24214	0	-0.783377	0	0	0	0	-0.000890588	0	8.09399e-05	0	0	0
2.45833	-129.513	1402.17	-2.0392	0.907065	0	-0.24142	0	-0.645716	0	0	0	0	-0.000890589	0	8.09379e-05	0	0	0
2.46667	-116.23	1477.49	-7.70556	0.896897	0	-0.240935	-0	0.325886	-0	0	0	0	-0.000890589	0	8.09359e-05	0	0	0
2.475	-101.45	1526.75	-15.0589	0.886553	0	-0.240753	-0	2.60428	-0	0	0	0	-0.00089059	0	8.0934e-05	0	0	0
2.48333	-88.6215	1551.53	-20.7289	0.876469	0	-0.240408	-0	3.99279	-0	0	0	0	-0.00089059	0	8.09321e-05	0	0	0
2.49167	-75.8695	1557.27	-22.7269	0.866316	0	-0.239648	-0	2.94419	-0	0	0	0	-0.000890591	0	8.09303e-05	0	0	0
2.5	-60.9065	1546.73	-22.8083	0.855709	0	-0.238793	-0	0.843023	-0	0	0	0	-0.000890591	0	8.09285e-05	0	0	0
2.50833	-43.8422	1519.37	-23.5646	0.844854	0	-0.238207	-0	0.086762	-0	0	0	0	-0.000890592	0	8.09267e-05	0	0	0
2.51667	-27.2762	1475.04	-24.7729	0.834204	0	-0.237868	-0	0.934419	-0	0	0	0	-0.000890592	0	8.0925e-05	0	0	0
2.525	-12.7157	1416.71	-24.0196	0.823841	0	-0.237529	-0	1.46901	-0	0	0	0	-0.000890593	0	8.09233e-05	0	0	0
2.53333	0.553233	1348.14	-20.1187	0.813723	0	-0.237152	-0	0.320715	-0	0	0	0	-0.000890593	0	8.09216e-05	0	0	0
2.54167	13.9917	1271	-14.3291	0.803657	0	-0.237011	0	-1.77592	0	0	0	0	-0.000890594	0	8.092e-05	0	0	0
2.55	29.4737	1186.78	-8.23054	0.793087	0	-0.237296	0	-3.32815	0	0	0	0	-0.000890594	0	8.09184e-05	0	0	0
2.55833	46.8946	1098.13	-1.86132	0.781695	0	-0.237869	0	-4.00552	0	0	0	0	-0.000890595	0	8.09169e-05	0	0	0
2.56667	64.6317	1006.82	5.42324	0.769622	0	-0.238464	0	-4.6061	0	0	0	0	-0.000890595	0	8.09154e-05	0	0	0
2.575	79.9759	912.703	13.2245	0.757472	0	-0.239027	0	-5.65274	0	0	0	0	-0.000890596	0	8.09139e-05	0	0	0
2.58333	90.8392	815.927	20.1494	0.745587	0	-0.239639	0	-6.76835	0	0	0	0	-0.000890596	0	8.09125e-05	0	0	0
2.59167	96.9652	718.412	25.1619	0.733707	0	-0.240185	0	-7.34336	0	0	0	0	-0.000890597	0	8.09111e-05	0	0	0
